<svg width="13" height="12" viewBox="0 0 13 12" fill="none" xmlns="http://www.w3.org/2000/svg">
<path d="M6.5 12C6.3149 12 6.13651 11.9304 5.99744 11.8041C5.47226 11.3276 4.96595 10.8799 4.51923 10.4849L4.51694 10.4829C3.20724 9.32487 2.07627 8.32484 1.28936 7.33971C0.409728 6.23846 0 5.19425 0 4.05354C0 2.94526 0.366285 1.92278 1.03129 1.17435C1.70424 0.417074 2.62763 0 3.63165 0C4.38207 0 5.06929 0.246156 5.67422 0.731566C5.97949 0.976563 6.2562 1.27643 6.5 1.6262C6.74388 1.27643 7.02051 0.976563 7.32588 0.731566C7.93081 0.246156 8.61804 0 9.36846 0C10.3724 0 11.2959 0.417074 11.9688 1.17435C12.6338 1.92278 13 2.94526 13 4.05354C13 5.19422 12.5904 6.23844 11.7107 7.33961C10.9238 8.32484 9.79294 9.32477 8.48344 10.4827C8.03593 10.8782 7.52883 11.3267 7.00246 11.8043C6.86335 11.9305 6.68481 12.0001 6.5 12ZM3.63165 0.790102C2.84286 0.790102 2.11824 1.11674 1.59108 1.70987C1.0561 2.31198 0.761414 3.14428 0.761414 4.05354C0.761414 5.01293 1.10508 5.87094 1.87563 6.8356C2.62039 7.76801 3.72816 8.74747 5.01079 9.88159L5.01315 9.88365C5.46155 10.2801 5.96987 10.7296 6.49891 11.2096C7.03112 10.7287 7.54023 10.2785 7.98952 9.88138C9.27205 8.74726 10.3797 7.76801 11.1245 6.8356C11.8949 5.87094 12.2386 5.01293 12.2386 4.05354C12.2386 3.14426 11.9439 2.31195 11.4089 1.70987C10.8819 1.11674 10.1572 0.790102 9.36846 0.790102C8.79062 0.790102 8.26008 0.980699 7.79165 1.35649C7.3742 1.69156 7.0834 2.11511 6.91288 2.41148C6.82523 2.56388 6.6709 2.65484 6.5 2.65484C6.3291 2.65484 6.17477 2.56388 6.0871 2.41148C5.91673 2.11511 5.6259 1.69156 5.20833 1.35649C4.73992 0.980699 4.20938 0.790102 3.63165 0.790102Z" fill="#808080" fill-opacity="0.5"/>
</svg>
