<svg width="46" height="46" viewBox="0 0 46 46" fill="none" xmlns="http://www.w3.org/2000/svg">
<path d="M23.5 11.4789C17.0224 11.4789 11.7526 16.6484 11.7526 23.0015C11.7526 29.3547 17.0224 34.5242 23.5 34.5242C29.9766 34.5242 35.2474 29.3557 35.2474 23.0015C35.2474 16.6474 29.9766 11.4789 23.5 11.4789ZM23.5 8.09194C22.8923 8.09194 22.3094 7.85523 21.8796 7.43385C21.4497 7.01247 21.2081 6.44092 21.2078 5.84486V2.2481C21.2078 1.65187 21.4493 1.08005 21.8792 0.658454C22.3091 0.236853 22.8921 0 23.5 0C24.1079 0 24.6909 0.236853 25.1208 0.658454C25.5507 1.08005 25.7922 1.65187 25.7922 2.2481V5.84486C25.7919 6.44092 25.5503 7.01247 25.1204 7.43385C24.6906 7.85523 24.1077 8.09194 23.5 8.09194ZM23.5 37.9081C23.199 37.9081 22.9009 37.9662 22.6228 38.0792C22.3447 38.1922 22.092 38.3578 21.8792 38.5665C21.6664 38.7753 21.4975 39.0231 21.3823 39.2959C21.2671 39.5686 21.2078 39.8609 21.2078 40.1562V43.7519C21.2078 44.3481 21.4493 44.9199 21.8792 45.3415C22.3091 45.7631 22.8921 46 23.5 46C24.1079 46 24.6909 45.7631 25.1208 45.3415C25.5507 44.9199 25.7922 44.3481 25.7922 43.7519V40.1562C25.7919 39.56 25.5503 38.9884 25.1205 38.5668C24.6907 38.1453 24.1078 37.9083 23.5 37.9081ZM34.2473 12.4588C33.8177 12.0371 33.5764 11.4653 33.5764 10.8692C33.5764 10.2731 33.8177 9.70138 34.2473 9.27966L36.8406 6.73615C37.0526 6.52383 37.3055 6.35484 37.5845 6.23897C37.8635 6.12309 38.1632 6.06263 38.4663 6.06109C38.7693 6.05954 39.0696 6.11693 39.3498 6.22995C39.6301 6.34297 39.8847 6.50936 40.099 6.71951C40.3133 6.92966 40.4829 7.17939 40.5981 7.45426C40.7134 7.72913 40.7719 8.02368 40.7703 8.32087C40.7687 8.61806 40.7071 8.91199 40.5889 9.18567C40.4708 9.45934 40.2985 9.70733 40.082 9.91528L37.4887 12.4588C37.0588 12.8803 36.4758 13.1171 35.868 13.1171C35.2601 13.1171 34.6771 12.8803 34.2473 12.4588ZM12.7517 33.5433C12.539 33.3343 12.2864 33.1685 12.0083 33.0554C11.7302 32.9423 11.4321 32.884 11.131 32.884C10.8299 32.884 10.5318 32.9423 10.2537 33.0554C9.97562 33.1685 9.72299 33.3343 9.51028 33.5433L6.91694 36.0857C6.49447 36.5088 6.25927 37.0783 6.26241 37.6705C6.26555 38.2626 6.5068 38.8297 6.93373 39.2484C7.36067 39.6671 7.93882 39.9037 8.54259 39.9068C9.14637 39.9099 9.727 39.6792 10.1584 39.2649L12.7517 36.7203C12.9646 36.5118 13.1335 36.2642 13.2487 35.9916C13.3639 35.7191 13.4232 35.4269 13.4232 35.1318C13.4232 34.8367 13.3639 34.5445 13.2487 34.272C13.1335 33.9994 12.9646 33.7518 12.7517 33.5433ZM38.6997 23.0005C38.6997 21.7588 39.7258 20.7524 40.9918 20.7524H44.6591C44.9641 20.746 45.2674 20.7995 45.5511 20.9096C45.8348 21.0196 46.0933 21.1842 46.3113 21.3935C46.5293 21.6029 46.7026 21.8528 46.8208 22.1286C46.9391 22.4045 47 22.7007 47 23C47 23.2993 46.9391 23.5955 46.8208 23.8714C46.7026 24.1472 46.5293 24.3971 46.3113 24.6065C46.0933 24.8158 45.8348 24.9804 45.5511 25.0904C45.2674 25.2005 44.9641 25.254 44.6591 25.2476H40.9918C40.6909 25.2477 40.3928 25.1897 40.1147 25.0768C39.8366 24.964 39.5839 24.7985 39.3711 24.5898C39.1582 24.3811 38.9894 24.1334 38.8742 23.8607C38.759 23.588 38.6997 23.2957 38.6997 23.0005ZM8.29929 23.0005C8.29929 22.7053 8.24001 22.413 8.12481 22.1402C8.00962 21.8674 7.84078 21.6196 7.62794 21.4109C7.41509 21.2021 7.16241 21.0365 6.88431 20.9235C6.60621 20.8106 6.30815 20.7524 6.00714 20.7524H2.34094C2.0359 20.746 1.73262 20.7995 1.4489 20.9096C1.16518 21.0196 0.906732 21.1842 0.688698 21.3935C0.470665 21.6029 0.297439 21.8528 0.179178 22.1286C0.0609165 22.4045 0 22.7007 0 23C0 23.2993 0.0609165 23.5955 0.179178 23.8714C0.297439 24.1472 0.470665 24.3971 0.688698 24.6065C0.906732 24.8158 1.16518 24.9804 1.4489 25.0904C1.73262 25.2005 2.0359 25.254 2.34094 25.2476H6.00818C6.61582 25.2476 7.19858 25.0108 7.62824 24.5894C8.05791 24.168 8.29929 23.5965 8.29929 23.0005ZM34.2473 33.5433C34.6772 33.122 35.2602 32.8853 35.868 32.8853C36.4758 32.8853 37.0587 33.122 37.4887 33.5433L40.082 36.0868C40.5117 36.5083 40.7531 37.0801 40.753 37.6762C40.7529 38.2723 40.5113 38.8439 40.0815 39.2654C39.8687 39.4741 39.616 39.6396 39.338 39.7525C39.0599 39.8654 38.7619 39.9235 38.4609 39.9234C37.8532 39.9233 37.2703 39.6864 36.8406 39.2649L34.2473 36.7214C34.0343 36.5128 33.8654 36.2651 33.7502 35.9924C33.635 35.7197 33.5756 35.4275 33.5756 35.1323C33.5756 34.8372 33.635 34.5449 33.7502 34.2722C33.8654 33.9996 34.0343 33.7519 34.2473 33.5433ZM12.7517 12.4588C13.1815 12.0372 13.423 11.4654 13.423 10.8692C13.423 10.273 13.1815 9.70125 12.7517 9.27966L10.1584 6.73717C9.72569 6.32991 9.14751 6.10517 8.54784 6.11117C7.94817 6.11716 7.37479 6.35341 6.95067 6.76925C6.52655 7.18508 6.28549 7.74737 6.27918 8.33551C6.27288 8.92365 6.50183 9.49079 6.91694 9.91528L9.51028 12.4588C9.72299 12.6678 9.97562 12.8335 10.2537 12.9467C10.5318 13.0598 10.8299 13.118 11.131 13.118C11.4321 13.118 11.7302 13.0598 12.0083 12.9467C12.2864 12.8335 12.539 12.6678 12.7517 12.4588Z" fill="black"/>
</svg>
